<svg xmlns="http://www.w3.org/2000/svg" viewBox="0 0 760 180" width="760" height="180" role="img" aria-label="oh-my-LibRPA wordmark">
  <defs>
    <linearGradient id="rocketBodyWord" x1="0%" y1="0%" x2="100%" y2="100%">
      <stop offset="0%" stop-color="#26A69A"/>
      <stop offset="100%" stop-color="#004D40"/>
    </linearGradient>
    <linearGradient id="rocketFlameWord" x1="0%" y1="0%" x2="0%" y2="100%">
      <stop offset="0%" stop-color="#80CBC4"/>
      <stop offset="100%" stop-color="#26A69A"/>
    </linearGradient>
    <linearGradient id="oml-text-main" x1="0%" y1="0%" x2="100%" y2="0%">
      <stop offset="0%" stop-color="#26A69A"/>
      <stop offset="100%" stop-color="#00796B"/>
    </linearGradient>
    <g id="bubbleWord" fill="none" stroke-linecap="round">
      <path d="M-8,0 A10,10 0 0,1 8,0 A10,10 0 0,1 -8,0" stroke="#00796B" stroke-width="3"/>
      <path d="M-8,0 A10,10 0 0,0 8,0 A10,10 0 0,0 -8,0" stroke="#004D40" stroke-width="3"/>
    </g>
  </defs>

  <g transform="translate(8,8)">
    <circle cx="76" cy="82" r="48" fill="none" stroke="#DCEBE7" stroke-width="3.2" stroke-dasharray="5 8"/>
    <circle cx="76" cy="82" r="41" fill="none" stroke="#F1F7F5" stroke-width="1.5"/>

    <use href="#bubbleWord" transform="translate(76 34) rotate(0)" opacity="1.0"/>
    <use href="#bubbleWord" transform="translate(110 48) rotate(45)" opacity="1.0"/>
    <use href="#bubbleWord" transform="translate(124 82) rotate(90)" opacity="1.0"/>
    <use href="#bubbleWord" transform="translate(110 116) rotate(135)" opacity="0.92"/>
    <use href="#bubbleWord" transform="translate(76 130) rotate(180)" opacity="0.82"/>
    <use href="#bubbleWord" transform="translate(42 116) rotate(225)" opacity="0.68"/>
    <use href="#bubbleWord" transform="translate(28 82) rotate(270)" opacity="0.52"/>
    <use href="#bubbleWord" transform="translate(42 48) rotate(315)" opacity="0.38"/>

    <path d="M76 43
             C90 52 100 73 100 95
             V115
             C100 135 90 152 76 163
             C62 152 52 135 52 115
             V95
             C52 73 62 52 76 43 Z"
          fill="url(#rocketBodyWord)"/>
    <path d="M52 114 L35 131 L52 136 Z" fill="#00796B"/>
    <path d="M100 114 L117 131 L100 136 Z" fill="#00796B"/>
    <path d="M64 149 L76 139 L88 149 L76 160 Z" fill="#0A8F80" opacity="0.95"/>
    <ellipse cx="76" cy="86" rx="11" ry="14" fill="#E7FAF6" stroke="#00796B" stroke-width="3"/>
    <circle cx="76" cy="86" r="4.4" fill="#26A69A"/>
    <path d="M76 161 C68 173 69 185 76 196 C83 185 84 173 76 161 Z" fill="url(#rocketFlameWord)"/>
  </g>

  <g font-family="Inter, 'IBM Plex Sans', 'Helvetica Neue', Arial, sans-serif">
    <text x="170" y="103" font-size="56" font-weight="500" font-style="italic" letter-spacing="-1.1" fill="#5F6B72">oh-my-</text>
    <text x="378" y="103" font-size="62" font-weight="500" letter-spacing="-1.4" fill="#26A69A">Lib</text>
    <text x="492" y="103" font-size="62" font-weight="760" letter-spacing="-1.4" fill="url(#oml-text-main)">RPA</text>
    <rect x="172" y="117" width="450" height="2.2" rx="1.1" fill="#D7E6E3"/>
    <text x="172" y="147" font-size="17.5" font-weight="500" letter-spacing="2.5" fill="#7A8A90">CHAT-FIRST GW / RPA WORKFLOWS</text>
  </g>
</svg>
