<svg xmlns="http://www.w3.org/2000/svg" viewBox="0 0 512 512" width="512" height="512">
  <!-- LibRPA Logo: Polarization Bubble Self-Energy Ring -->
  <!-- Polished V4: 18 bubbles in a ring, 5 fading to suggest infinite summation -->

  <defs>
    <g id="b-full" fill="none" stroke-width="4" stroke-linecap="round">
      <path d="M-14,0 A17,17 0 0,1 14,0 A17,17 0 0,1 -14,0" stroke="#00796B"/>
      <path d="M-14,0 A17,17 0 0,0 14,0 A17,17 0 0,0 -14,0" stroke="#004D40"/>
    </g>
    <g id="b-md" fill="none" stroke-width="3.5" stroke-linecap="round">
      <path d="M-12,0 A15,15 0 0,1 12,0 A15,15 0 0,1 -12,0" stroke="#00796B"/>
      <path d="M-12,0 A15,15 0 0,0 12,0 A15,15 0 0,0 -12,0" stroke="#004D40"/>
    </g>
    <g id="b-sm" fill="none" stroke-width="3" stroke-linecap="round">
      <path d="M-10,0 A12,12 0 0,1 10,0 A12,12 0 0,1 -10,0" stroke="#00796B"/>
      <path d="M-10,0 A12,12 0 0,0 10,0 A12,12 0 0,0 -10,0" stroke="#004D40"/>
    </g>
    <g id="b-xs" fill="none" stroke-width="2.5" stroke-linecap="round">
      <path d="M-7,0 A9,9 0 0,1 7,0 A9,9 0 0,1 -7,0" stroke="#00796B"/>
      <path d="M-7,0 A9,9 0 0,0 7,0 A9,9 0 0,0 -7,0" stroke="#004D40"/>
    </g>
    <g id="b-xxs" fill="none" stroke-width="2" stroke-linecap="round">
      <path d="M-5,0 A7,7 0 0,1 5,0 A7,7 0 0,1 -5,0" stroke="#00796B"/>
      <path d="M-5,0 A7,7 0 0,0 5,0 A7,7 0 0,0 -5,0" stroke="#004D40"/>
    </g>
  </defs>

  <!-- Propagator lines between adjacent bubbles -->
  <line x1="107.5" y1="202.0" x2="135.0" y2="154.4" stroke="#26A69A" stroke-width="1.2" opacity="0.18" stroke-dasharray="3,3"/>
  <line x1="135.0" y1="154.4" x2="177.0" y2="119.2" stroke="#26A69A" stroke-width="1.2" opacity="0.18" stroke-dasharray="3,3"/>
  <line x1="177.0" y1="119.2" x2="228.6" y2="100.4" stroke="#26A69A" stroke-width="1.2" opacity="0.18" stroke-dasharray="3,3"/>
  <line x1="228.6" y1="100.4" x2="283.4" y2="100.4" stroke="#26A69A" stroke-width="1.2" opacity="0.18" stroke-dasharray="3,3"/>
  <line x1="283.4" y1="100.4" x2="335.0" y2="119.2" stroke="#26A69A" stroke-width="1.2" opacity="0.18" stroke-dasharray="3,3"/>
  <line x1="335.0" y1="119.2" x2="377.0" y2="154.4" stroke="#26A69A" stroke-width="1.2" opacity="0.18" stroke-dasharray="3,3"/>
  <line x1="377.0" y1="154.4" x2="404.5" y2="202.0" stroke="#26A69A" stroke-width="1.2" opacity="0.18" stroke-dasharray="3,3"/>
  <line x1="404.5" y1="202.0" x2="414.0" y2="256.0" stroke="#26A69A" stroke-width="1.2" opacity="0.18" stroke-dasharray="3,3"/>
  <line x1="414.0" y1="256.0" x2="404.5" y2="310.0" stroke="#26A69A" stroke-width="1.2" opacity="0.18" stroke-dasharray="3,3"/>
  <line x1="404.5" y1="310.0" x2="377.0" y2="357.6" stroke="#26A69A" stroke-width="1.2" opacity="0.18" stroke-dasharray="3,3"/>
  <line x1="377.0" y1="357.6" x2="335.0" y2="392.8" stroke="#26A69A" stroke-width="1.2" opacity="0.18" stroke-dasharray="3,3"/>
  <line x1="335.0" y1="392.8" x2="283.4" y2="411.6" stroke="#26A69A" stroke-width="1.2" opacity="0.18" stroke-dasharray="3,3"/>
  <line x1="283.4" y1="411.6" x2="228.6" y2="411.6" stroke="#26A69A" stroke-width="1.2" opacity="0.14" stroke-dasharray="3,3"/>
  <line x1="228.6" y1="411.6" x2="177.0" y2="392.8" stroke="#26A69A" stroke-width="1.2" opacity="0.12" stroke-dasharray="3,3"/>
  <line x1="177.0" y1="392.8" x2="135.0" y2="357.6" stroke="#26A69A" stroke-width="1.2" opacity="0.10" stroke-dasharray="3,3"/>
  <line x1="135.0" y1="357.6" x2="107.5" y2="310.0" stroke="#26A69A" stroke-width="1.2" opacity="0.07" stroke-dasharray="3,3"/>
  <line x1="107.5" y1="310.0" x2="98.0" y2="256.0" stroke="#26A69A" stroke-width="1.2" opacity="0.04" stroke-dasharray="3,3"/>
  <line x1="98.0" y1="256.0" x2="107.5" y2="202.0" stroke="#26A69A" stroke-width="1.2" opacity="0.04" stroke-dasharray="3,3"/>

  <!-- Bubble ring -->
  <use href="#b-full" transform="translate(107.5,202.0) rotate(290.0)" opacity="1.0"/>
  <use href="#b-full" transform="translate(135.0,154.4) rotate(310.0)" opacity="1.0"/>
  <use href="#b-full" transform="translate(177.0,119.2) rotate(330.0)" opacity="1.0"/>
  <use href="#b-full" transform="translate(228.6,100.4) rotate(350.0)" opacity="1.0"/>
  <use href="#b-full" transform="translate(283.4,100.4) rotate(370.0)" opacity="1.0"/>
  <use href="#b-full" transform="translate(335.0,119.2) rotate(390.0)" opacity="1.0"/>
  <use href="#b-full" transform="translate(377.0,154.4) rotate(410.0)" opacity="1.0"/>
  <use href="#b-full" transform="translate(404.5,202.0) rotate(430.0)" opacity="1.0"/>
  <use href="#b-full" transform="translate(414.0,256.0) rotate(450.0)" opacity="1.0"/>
  <use href="#b-full" transform="translate(404.5,310.0) rotate(470.0)" opacity="1.0"/>
  <use href="#b-full" transform="translate(377.0,357.6) rotate(490.0)" opacity="1.0"/>
  <use href="#b-full" transform="translate(335.0,392.8) rotate(510.0)" opacity="1.0"/>
  <use href="#b-full" transform="translate(283.4,411.6) rotate(530.0)" opacity="1.0"/>
  <use href="#b-md" transform="translate(228.6,411.6) rotate(550.0)" opacity="0.65"/>
  <use href="#b-sm" transform="translate(177.0,392.8) rotate(570.0)" opacity="0.53"/>
  <use href="#b-sm" transform="translate(135.0,357.6) rotate(590.0)" opacity="0.4"/>
  <use href="#b-xs" transform="translate(107.5,310.0) rotate(610.0)" opacity="0.28"/>
  <use href="#b-xxs" transform="translate(98.0,256.0) rotate(630.0)" opacity="0.15"/>

</svg>