<svg xmlns="http://www.w3.org/2000/svg" viewBox="0 0 760 180" width="760" height="180" role="img" aria-label="oh-my-LibRPA wordmark">
  <defs>
    <linearGradient id="rocket-body-sm" x1="0%" y1="0%" x2="100%" y2="100%">
      <stop offset="0%" stop-color="#26A69A"/>
      <stop offset="100%" stop-color="#004D40"/>
    </linearGradient>
    <linearGradient id="rocket-flame-sm" x1="0%" y1="0%" x2="0%" y2="100%">
      <stop offset="0%" stop-color="#DFFAF5"/>
      <stop offset="60%" stop-color="#26A69A"/>
      <stop offset="100%" stop-color="#00796B"/>
    </linearGradient>
    <linearGradient id="oml-text-main" x1="0%" y1="0%" x2="100%" y2="0%">
      <stop offset="0%" stop-color="#26A69A"/>
      <stop offset="100%" stop-color="#00796B"/>
    </linearGradient>
    <g id="bubble-sm" fill="none" stroke-linecap="round" stroke-width="3.2">
      <path d="M-10,0 A12,12 0 0,1 10,0 A12,12 0 0,1 -10,0" stroke="#00796B"/>
      <path d="M-10,0 A12,12 0 0,0 10,0 A12,12 0 0,0 -10,0" stroke="#004D40"/>
    </g>
  </defs>

  <g transform="translate(96 88)">
    <circle cx="0" cy="0" r="54" fill="none" stroke="#CFEDE7" stroke-width="5.5" stroke-dasharray="5 9"/>
    <circle cx="0" cy="0" r="38" fill="#FAFEFD" opacity="0.95"/>

    <use href="#bubble-sm" transform="translate(0 -58) scale(1.02)"/>
    <use href="#bubble-sm" transform="translate(32 -48) rotate(28) scale(0.96)"/>
    <use href="#bubble-sm" transform="translate(54 -14) rotate(64) scale(0.88)"/>
    <use href="#bubble-sm" transform="translate(52 24) rotate(98) scale(0.80)"/>
    <use href="#bubble-sm" transform="translate(28 50) rotate(132) scale(0.72)" opacity="0.9"/>
    <use href="#bubble-sm" transform="translate(-8 57) rotate(176) scale(0.62)" opacity="0.72"/>
    <use href="#bubble-sm" transform="translate(-40 40) rotate(220) scale(0.52)" opacity="0.48"/>
    <use href="#bubble-sm" transform="translate(-56 4) rotate(266) scale(0.42)" opacity="0.28"/>

    <g transform="translate(0 0) rotate(10)">
      <path d="M0 -38 C12 -30 20 -14 20 4 C20 20 12 34 0 42 C-12 34 -20 20 -20 4 C-20 -14 -12 -30 0 -38 Z" fill="url(#rocket-body-sm)"/>
      <ellipse cx="0" cy="-6" rx="8" ry="10" fill="#E8FFFB" stroke="#00796B" stroke-width="2.3"/>
      <path d="M-20 10 L-36 22 L-16 26 Z" fill="#26A69A"/>
      <path d="M20 10 L36 22 L16 26 Z" fill="#00796B"/>
      <path d="M-9 31 L-17 49 L-1 40 Z" fill="#26A69A"/>
      <path d="M9 31 L17 49 L1 40 Z" fill="#00796B"/>
      <path d="M0 40 C8 50 8 66 0 78 C-8 66 -8 50 0 40 Z" fill="url(#rocket-flame-sm)"/>
      <path d="M0 48 C4 54 4 64 0 70 C-4 64 -4 54 0 48 Z" fill="#F6FFFD" opacity="0.92"/>
    </g>
  </g>

  <g font-family="Inter, 'IBM Plex Sans', 'Helvetica Neue', Arial, sans-serif">
    <text x="178" y="102" font-size="58" font-weight="500" font-style="italic" letter-spacing="-1.2" fill="#5F6B72">oh-my-</text>
    <text x="390" y="102" font-size="64" font-weight="500" letter-spacing="-1.5" fill="#26A69A">Lib</text>
    <text x="508" y="102" font-size="64" font-weight="780" letter-spacing="-1.5" fill="url(#oml-text-main)">RPA</text>
    <rect x="180" y="116" width="456" height="2.2" rx="1.1" fill="#D7E6E3"/>
    <text x="180" y="147" font-size="18" font-weight="500" letter-spacing="2.5" fill="#7A8A90">CHAT-FIRST GW / RPA WORKFLOWS</text>
  </g>
</svg>
